<svg width="32" height="32" viewBox="0 0 32 32" fill="none" xmlns="http://www.w3.org/2000/svg">
<path d="M0 16C0 7.16344 7.16344 0 16 0C24.8366 0 32 7.16344 32 16C32 24.8366 24.8366 32 16 32C7.16344 32 0 24.8366 0 16Z" fill="#FFE812"/>
<path d="M15.9999 7.33325C10.1088 7.33325 5.33325 11.0987 5.33325 15.7435C5.33325 18.7465 7.32976 21.3815 10.333 22.8694C10.1697 23.4328 9.2831 26.4944 9.24782 26.7349C9.24782 26.7349 9.22659 26.9156 9.34361 26.9845C9.46064 27.0535 9.59828 26.9999 9.59828 26.9999C9.93387 26.953 13.4899 24.4552 14.1054 24.0215C14.7202 24.1085 15.3534 24.1538 15.9999 24.1538C21.891 24.1538 26.6666 20.3884 26.6666 15.7435C26.6666 11.0987 21.891 7.33325 15.9999 7.33325Z" fill="#381F1F"/>
<path d="M10.1026 18.6794C9.7632 18.6794 9.4872 18.4158 9.4872 18.0917V14.4358H8.52699C8.19397 14.4358 7.9231 14.1655 7.9231 13.8333C7.9231 13.5011 8.19407 13.2307 8.52699 13.2307H11.6782C12.0112 13.2307 12.2821 13.5011 12.2821 13.8333C12.2821 14.1655 12.0111 14.4358 11.6782 14.4358H10.718V18.0917C10.718 18.4158 10.442 18.6794 10.1026 18.6794ZM15.4987 18.6714C15.2421 18.6714 15.0458 18.5672 14.9866 18.3996L14.6819 17.6019L12.8054 17.6018L12.5004 18.4C12.4415 18.5673 12.2452 18.6714 11.9886 18.6714C11.8537 18.6716 11.7202 18.6426 11.5975 18.5865C11.4278 18.5083 11.2647 18.2931 11.4516 17.7127L12.9236 13.8382C13.0273 13.5435 13.3423 13.2399 13.7431 13.2308C14.145 13.2398 14.46 13.5435 14.5639 13.8388L16.0353 17.7115C16.2226 18.2933 16.0595 18.5086 15.8899 18.5866C15.7671 18.6426 15.6337 18.6715 15.4987 18.6714C15.4987 18.6714 15.4986 18.6714 15.4987 18.6714ZM14.3583 16.5118L13.7436 14.7657L13.1289 16.5118H14.3583ZM17.0257 18.5897C16.7004 18.5897 16.4359 18.3366 16.4359 18.0256V13.8461C16.4359 13.5067 16.7178 13.2307 17.0641 13.2307C17.4105 13.2307 17.6923 13.5067 17.6923 13.8461V17.4615H19C19.3252 17.4615 19.5898 17.7146 19.5898 18.0256C19.5898 18.3366 19.3252 18.5897 19 18.5897H17.0257ZM20.4445 18.6714C20.1051 18.6714 19.8291 18.3954 19.8291 18.056V13.8461C19.8291 13.5067 20.1051 13.2307 20.4445 13.2307C20.7839 13.2307 21.0599 13.5067 21.0599 13.8461V15.1688L22.7768 13.4518C22.8651 13.3635 22.9865 13.3149 23.1182 13.3149C23.2718 13.3149 23.4261 13.3812 23.5417 13.4967C23.6495 13.6044 23.7138 13.7429 23.7226 13.8868C23.7315 14.0319 23.6832 14.165 23.5868 14.2615L22.1844 15.6636L23.6992 17.6704C23.7481 17.7348 23.7837 17.8082 23.804 17.8865C23.8243 17.9648 23.8288 18.0463 23.8173 18.1263C23.8064 18.2064 23.7796 18.2835 23.7386 18.3532C23.6977 18.4228 23.6433 18.4837 23.5786 18.5322C23.4722 18.613 23.3421 18.6567 23.2084 18.6564C23.1131 18.6568 23.0189 18.6349 22.9336 18.5924C22.8482 18.5499 22.774 18.4881 22.7168 18.4117L21.2737 16.4995L21.0601 16.7131V18.0557C21.0599 18.219 20.995 18.3754 20.8796 18.4909C20.7642 18.6063 20.6077 18.6712 20.4445 18.6714Z" fill="#FFE812"/>
</svg>
