<svg width="31" height="25" viewBox="0 0 31 25" fill="none" xmlns="http://www.w3.org/2000/svg">
<path d="M5.75 0.3125C4.45707 0.3125 3.21709 0.826114 2.30285 1.74035C1.38861 2.65459 0.875 3.89457 0.875 5.1875V5.67744L15.5 13.553L30.125 5.67988V5.1875C30.125 3.89457 29.6114 2.65459 28.6971 1.74035C27.7829 0.826114 26.5429 0.3125 25.25 0.3125H5.75Z" fill="#909090"/>
<path d="M30.125 8.44629L16.0777 16.0099C15.9001 16.1054 15.7016 16.1555 15.5 16.1555C15.2984 16.1555 15.0999 16.1054 14.9223 16.0099L0.875 8.44629V19.8124C0.875 21.1053 1.38861 22.3453 2.30285 23.2595C3.21709 24.1737 4.45707 24.6874 5.75 24.6874H25.25C26.5429 24.6874 27.7829 24.1737 28.6971 23.2595C29.6114 22.3453 30.125 21.1053 30.125 19.8124V8.44629Z" fill="#909090"/>
</svg>
