<svg width="27" height="27" viewBox="0 0 27 27" fill="none" xmlns="http://www.w3.org/2000/svg">
<path fill-rule="evenodd" clip-rule="evenodd" d="M18.0802 1.25046C18.6115 0.719292 19.332 0.420898 20.0833 0.420898C20.8346 0.420898 21.5552 0.719292 22.0865 1.25046L25.75 4.91396C26.2812 5.44529 26.5796 6.16583 26.5796 6.91713C26.5796 7.66843 26.2812 8.38896 25.75 8.92029L23.5032 11.1671L15.8333 3.49729L18.0802 1.25046ZM13.8302 5.50046L1.08017 18.2505C0.548777 18.7817 0.25016 19.5022 0.25 20.2536V23.9171C0.25 24.6686 0.548511 25.3892 1.07986 25.9206C1.61122 26.4519 2.33189 26.7505 3.08333 26.7505H6.74683C7.49822 26.7503 8.21877 26.4517 8.75 25.9203L21.5 13.1703L13.8302 5.50046Z" fill="#909090"/>
</svg>
