<svg width="16" height="11" viewBox="0 0 16 11" fill="none" xmlns="http://www.w3.org/2000/svg">
<path d="M8.21429 5.00342C8.21429 7.62123 6.40574 9.64628 4.28571 9.64628C2.16569 9.64628 0.357143 7.62123 0.357143 5.00342C0.357143 2.3856 2.16569 0.360561 4.28571 0.360561C6.40574 0.360561 8.21429 2.3856 8.21429 5.00342Z" fill="white" stroke="#343A40" stroke-width="0.714286"/>
<path d="M15.3571 5.00342C15.3571 7.62123 13.5486 9.64628 11.4285 9.64628C9.30851 9.64628 7.49997 7.62123 7.49997 5.00342C7.49997 2.3856 9.30851 0.360561 11.4285 0.360561C13.5486 0.360561 15.3571 2.3856 15.3571 5.00342Z" fill="white" stroke="#343A40" stroke-width="0.714286"/>
<circle cx="3.17847" cy="5.75342" r="1.63095" fill="#343A40" stroke="#343A40" stroke-width="0.238095"/>
<circle cx="10.3215" cy="5.75342" r="1.63095" fill="#343A40" stroke="#343A40" stroke-width="0.238095"/>
</svg>
