<svg width="17" height="16" viewBox="0 0 17 16" fill="none" xmlns="http://www.w3.org/2000/svg">
<path d="M0.334613 0.348901C0.54893 0.134648 0.839568 0.0142876 1.14261 0.0142876C1.44566 0.0142876 1.7363 0.134648 1.95061 0.348901L7.99976 6.39804L14.0489 0.348901C14.1543 0.239746 14.2804 0.152681 14.4199 0.0927849C14.5593 0.0328888 14.7093 0.0013618 14.861 4.31505e-05C15.0128 -0.0012755 15.1632 0.0276408 15.3037 0.0851046C15.4442 0.142569 15.5718 0.227429 15.6791 0.334735C15.7864 0.442041 15.8712 0.569643 15.9287 0.710096C15.9862 0.850549 16.0151 1.00104 16.0138 1.15279C16.0124 1.30454 15.9809 1.4545 15.921 1.59393C15.8611 1.73337 15.7741 1.85948 15.6649 1.9649L9.61576 8.01404L15.6649 14.0632C15.8731 14.2787 15.9883 14.5674 15.9857 14.8671C15.9831 15.1667 15.8629 15.4534 15.651 15.6653C15.4391 15.8772 15.1524 15.9974 14.8528 16C14.5531 16.0026 14.2644 15.8874 14.0489 15.6792L7.99976 9.63004L1.95061 15.6792C1.73507 15.8874 1.44638 16.0026 1.14673 16C0.847072 15.9974 0.56043 15.8772 0.348535 15.6653C0.13664 15.4534 0.0164468 15.1667 0.0138429 14.8671C0.0112389 14.5674 0.126432 14.2787 0.334613 14.0632L6.38376 8.01404L0.334613 1.9649C0.12036 1.75058 0 1.45995 0 1.1569C0 0.853856 0.12036 0.563218 0.334613 0.348901Z" fill="#767B80"/>
</svg>
