<svg width="18" height="19" viewBox="0 0 18 19" fill="none" xmlns="http://www.w3.org/2000/svg">
<path d="M12.8645 11.5466H12.0515L11.7633 11.2687C12.7719 10.0955 13.3791 8.57231 13.3791 6.91537C13.3791 3.22068 10.3842 0.22583 6.68954 0.22583C2.99485 0.22583 0 3.22068 0 6.91537C0 10.6101 2.99485 13.6049 6.68954 13.6049C8.34648 13.6049 9.86964 12.9977 11.0429 11.9891L11.3208 12.2773V13.0903L16.4666 18.2258L18 16.6924L12.8645 11.5466ZM6.68954 11.5466C4.12693 11.5466 2.05832 9.47797 2.05832 6.91537C2.05832 4.35276 4.12693 2.28415 6.68954 2.28415C9.25214 2.28415 11.3208 4.35276 11.3208 6.91537C11.3208 9.47797 9.25214 11.5466 6.68954 11.5466Z" fill="#6F9ACD"/>
</svg>
