<svg width="34" height="34" viewBox="0 0 34 34" fill="none" xmlns="http://www.w3.org/2000/svg">
<path d="M17 0.5C7.8873 0.5 0.5 7.8873 0.5 17C0.5 26.1127 7.8873 33.5 17 33.5C26.1127 33.5 33.5 26.1127 33.5 17C33.5 7.8873 26.1127 0.5 17 0.5Z" fill="white" stroke="#EAEAEA"/>
<path d="M16.9999 12.7475C18.3019 12.7475 19.1801 13.3099 19.6808 13.7798L21.6376 11.8693C20.4358 10.7523 18.8719 10.0667 16.9999 10.0667C14.2882 10.0667 11.9463 11.6228 10.8062 13.8877L13.0479 15.6287C13.6103 13.957 15.1664 12.7475 16.9999 12.7475Z" fill="#EA4335"/>
<path d="M23.656 17.1541C23.656 16.584 23.6098 16.168 23.5096 15.7366H17V18.3096H20.821C20.744 18.949 20.328 19.912 19.4036 20.5591L21.5914 22.2539C22.901 21.0444 23.656 19.2649 23.656 17.1541Z" fill="#4285F4"/>
<path d="M13.0557 18.3713C12.9093 17.9398 12.8246 17.4776 12.8246 17C12.8246 16.5224 12.9093 16.0601 13.048 15.6287L10.8062 13.8877C10.3363 14.8275 10.0667 15.883 10.0667 17C10.0667 18.117 10.3363 19.1724 10.8062 20.1123L13.0557 18.3713Z" fill="#FBBC05"/>
<path d="M17 23.9334C18.872 23.9334 20.4436 23.3171 21.5914 22.254L19.4036 20.5592C18.8181 20.9675 18.0323 21.2525 17 21.2525C15.1666 21.2525 13.6104 20.043 13.0557 18.3713L10.814 20.1124C11.9541 22.3773 14.2883 23.9334 17 23.9334Z" fill="#34A853"/>
</svg>
