<svg width="520" height="93" viewBox="0 0 520 93" fill="none" xmlns="http://www.w3.org/2000/svg">
<path d="M15.5114 63.5228L17.7273 73.125L45.7955 67.2159L50.2273 61.6762L46.5341 35.0852L42.4716 30.6534L9.60227 23.6364L3.32386 28.8068L0 91.5909L9.97159 91.9603L12.9261 34.7159L37.3011 39.8864L39.517 58.3523L15.5114 63.5228Z" fill="#B9B8F6"/>
<path fill-rule="evenodd" clip-rule="evenodd" d="M67.9545 33.9773L103.409 32.5L108.58 37.3012L109.687 77.5568L104.517 82.7273L65.3693 80.5114L60.5682 74.9716L63.1534 38.7784L67.9545 33.9773ZM98.9773 42.4716L72.7557 43.5796L71.2784 70.9091L99.7159 72.3864L98.9773 42.4716Z" fill="#B9B8F6"/>
<path d="M122.614 29.5455L132.585 29.1762V42.4716L156.96 31.0227L161.392 39.8864L132.955 53.5512L134.062 85.3125L124.091 85.6818L122.614 29.5455Z" fill="#B9B8F6"/>
<path d="M186.506 26.2216L196.477 27.3296L195.739 36.5625L219.375 35.0852L220.114 45.0568L194.631 46.9034L192.045 73.125L213.097 79.4034L210.511 88.6364L185.398 81.6193L181.705 76.4489L184.29 47.6421L163.608 49.1193L162.869 39.1477L185.398 37.6705L186.506 26.2216Z" fill="#B9B8F6"/>
<path d="M264.432 17.7273L268.125 26.5909L255.199 32.1307L253.352 62.7841L271.818 64.2614L271.08 74.233L252.614 72.3864L251.506 92.3296L241.534 91.9603L242.642 71.6478L224.545 69.8012L225.653 60.1989L243.381 61.6762L245.597 28.8068L248.551 24.375L264.432 17.7273Z" fill="#B9B8F6"/>
<path fill-rule="evenodd" clip-rule="evenodd" d="M287.699 33.9773L323.153 32.5L328.693 37.3012L329.801 77.5568L324.261 82.7273L285.114 80.5114L280.682 75.3409L283.267 38.4091L287.699 33.9773ZM318.722 42.8409L292.869 43.5796L291.023 70.9091L319.46 72.3864L318.722 42.8409Z" fill="#B9B8F6"/>
<path d="M350.483 21.7898L360.085 22.8977L351.222 86.7898L341.25 85.6818L350.483 21.7898Z" fill="#B9B8F6"/>
<path d="M373.381 42.1023L382.983 43.2102L377.812 85.3125L368.21 84.2046L373.381 42.1023Z" fill="#B9B8F6"/>
<path d="M370.795 24.0057L380.028 21.4205L383.352 32.8693L373.75 35.4546L370.795 24.0057Z" fill="#B9B8F6"/>
<path fill-rule="evenodd" clip-rule="evenodd" d="M395.909 36.1932L439.489 25.483L445.767 29.9148L451.676 73.8637L459.062 76.0796L456.477 85.3125L446.136 82.7273L444.29 80.5114L400.341 87.1591L394.432 81.25L400.341 57.2443L405.142 53.1818H438.75L436.903 36.5625L398.494 45.7955L395.909 36.1932ZM440.227 63.1534H409.205L405.511 76.0796L441.335 70.5398L440.227 63.1534Z" fill="#B9B8F6"/>
<path d="M470.881 44.3182L475.682 39.8864L507.074 35.0852L512.983 39.8864L514.83 81.6193L504.858 81.9887L503.381 45.7955L480.114 49.4887L475.682 80.5114L465.71 79.0341L470.881 44.3182Z" fill="#B9B8F6"/>
<path d="M16.9887 53.9205L19.2046 63.5227L47.2727 57.6136L51.7046 52.0739L48.0114 25.483L43.9489 21.0511L11.0796 14.0341L4.80116 19.2045L1.47729 81.9886L11.4489 82.358L14.4034 25.1136L38.7784 30.2841L40.9943 48.75L16.9887 53.9205Z" fill="#DDE9BB"/>
<path fill-rule="evenodd" clip-rule="evenodd" d="M69.4318 24.375L104.886 22.8977L110.057 27.6989L111.165 67.9545L105.994 73.125L66.8466 70.9091L62.0455 65.3693L64.6307 29.1761L69.4318 24.375ZM100.455 32.8693L74.233 33.9773L72.7557 61.3068L101.193 62.7841L100.455 32.8693Z" fill="#DDE9BB"/>
<path d="M124.091 19.9432L134.063 19.5739V32.8693L158.438 21.4205L162.869 30.2841L134.432 43.9489L135.54 75.7102L125.568 76.0795L124.091 19.9432Z" fill="#DDE9BB"/>
<path d="M187.983 16.6193L197.955 17.7273L197.216 26.9602L220.852 25.483L221.591 35.4545L196.108 37.3011L193.523 63.5227L214.574 69.8011L211.989 79.0341L186.875 72.017L183.182 66.8466L185.767 38.0398L165.085 39.517L164.347 29.5455L186.875 28.0682L187.983 16.6193Z" fill="#DDE9BB"/>
<path d="M265.909 8.125L269.602 16.9886L256.676 22.5284L254.83 53.1818L273.295 54.6591L272.557 64.6307L254.091 62.7841L252.983 82.7273L243.011 82.358L244.119 62.0455L226.023 60.1989L227.131 50.5966L244.858 52.0739L247.074 19.2045L250.028 14.7727L265.909 8.125Z" fill="#DDE9BB"/>
<path fill-rule="evenodd" clip-rule="evenodd" d="M289.176 24.375L324.631 22.8977L330.17 27.6989L331.278 67.9545L325.739 73.125L286.591 70.9091L282.159 65.7386L284.744 28.8068L289.176 24.375ZM320.199 33.2386L294.347 33.9773L292.5 61.3068L320.938 62.7841L320.199 33.2386Z" fill="#DDE9BB"/>
<path d="M351.96 12.1875L361.562 13.2955L352.699 77.1875L342.727 76.0795L351.96 12.1875Z" fill="#DDE9BB"/>
<path d="M374.858 32.5L384.46 33.608L379.29 75.7102L369.687 74.6023L374.858 32.5Z" fill="#DDE9BB"/>
<path d="M372.273 14.4034L381.506 11.8182L384.83 23.267L375.227 25.8523L372.273 14.4034Z" fill="#DDE9BB"/>
<path fill-rule="evenodd" clip-rule="evenodd" d="M397.386 26.5909L440.966 15.8807L447.244 20.3125L453.153 64.2614L460.54 66.4773L457.955 75.7102L447.614 73.125L445.767 70.9091L401.818 77.5568L395.909 71.6477L401.818 47.642L406.619 43.5795H440.227L438.381 26.9602L399.972 36.1932L397.386 26.5909ZM441.705 53.5511H410.682L406.989 66.4773L442.812 60.9375L441.705 53.5511Z" fill="#DDE9BB"/>
<path d="M472.358 34.7159L477.159 30.2841L508.551 25.483L514.46 30.2841L516.307 72.017L506.335 72.3864L504.858 36.1932L481.591 39.8864L477.159 70.9091L467.187 69.4318L472.358 34.7159Z" fill="#DDE9BB"/>
<path d="M20.6818 45.7955L22.8977 55.3977L50.9659 49.4886L55.3977 43.9489L51.7046 17.358L47.6421 12.9261L14.7727 5.90909L8.49433 11.0795L5.17047 73.8636L15.1421 74.233L18.0966 16.9886L42.4716 22.1591L44.6875 40.625L20.6818 45.7955Z" fill="#4F5256"/>
<path fill-rule="evenodd" clip-rule="evenodd" d="M73.125 16.25L108.58 14.7727L113.75 19.5739L114.858 59.8295L109.688 65L70.5398 62.7841L65.7386 57.2443L68.3239 21.0511L73.125 16.25ZM104.148 24.7443L77.9261 25.8523L76.4489 53.1818L104.886 54.6591L104.148 24.7443Z" fill="#4F5256"/>
<path d="M127.784 11.8182L137.756 11.4489V24.7443L162.131 13.2955L166.563 22.1591L138.125 35.8239L139.233 67.5852L129.261 67.9545L127.784 11.8182Z" fill="#4F5256"/>
<path d="M191.676 8.49432L201.648 9.60227L200.909 18.8352L224.545 17.358L225.284 27.3295L199.801 29.1761L197.216 55.3977L218.267 61.6761L215.682 70.9091L190.568 63.892L186.875 58.7216L189.46 29.9148L168.778 31.392L168.04 21.4205L190.568 19.9432L191.676 8.49432Z" fill="#4F5256"/>
<path d="M269.602 0L273.295 8.86364L260.369 14.4034L258.523 45.0568L276.989 46.5341L276.25 56.5057L257.784 54.6591L256.676 74.6023L246.705 74.233L247.813 53.9205L229.716 52.0739L230.824 42.4716L248.551 43.9489L250.767 11.0795L253.722 6.64773L269.602 0Z" fill="#4F5256"/>
<path fill-rule="evenodd" clip-rule="evenodd" d="M292.869 16.25L328.324 14.7727L333.864 19.5739L334.972 59.8295L329.432 65L290.284 62.7841L285.852 57.6136L288.437 20.6818L292.869 16.25ZM323.892 25.1136L298.04 25.8523L296.193 53.1818L324.631 54.6591L323.892 25.1136Z" fill="#4F5256"/>
<path d="M355.653 4.0625L365.256 5.17045L356.392 69.0625L346.42 67.9545L355.653 4.0625Z" fill="#4F5256"/>
<path d="M378.551 24.375L388.153 25.483L382.983 67.5852L373.381 66.4773L378.551 24.375Z" fill="#4F5256"/>
<path d="M375.966 6.27841L385.199 3.69318L388.523 15.142L378.92 17.7273L375.966 6.27841Z" fill="#4F5256"/>
<path fill-rule="evenodd" clip-rule="evenodd" d="M401.08 18.4659L444.659 7.75568L450.937 12.1875L456.847 56.1364L464.233 58.3523L461.648 67.5852L451.307 65L449.46 62.7841L405.511 69.4318L399.602 63.5227L405.511 39.517L410.312 35.4545H443.92L442.074 18.8352L403.665 28.0682L401.08 18.4659ZM445.398 45.4261H414.375L410.682 58.3523L446.506 52.8125L445.398 45.4261Z" fill="#4F5256"/>
<path d="M476.051 26.5909L480.852 22.1591L512.244 17.358L518.153 22.1591L520 63.892L510.028 64.2614L508.551 28.0682L485.284 31.7614L480.852 62.7841L470.881 61.3068L476.051 26.5909Z" fill="#4F5256"/>
</svg>
