<svg width="192" height="35" viewBox="0 0 192 35" fill="none" xmlns="http://www.w3.org/2000/svg">
<g clip-path="url(#clip0_1891_34945)">
<path d="M5.72729 23.4546L6.54546 27L16.9091 24.8182L18.5455 22.7728L17.1818 12.9545L15.6818 11.3182L3.54545 8.72729L1.22727 10.6364L0 33.8182L3.68182 33.9546L4.77271 12.8182L13.7727 14.7273L14.5909 21.5455L5.72729 23.4546Z" fill="#B9B8F6"/>
<path fill-rule="evenodd" clip-rule="evenodd" d="M25.0905 12.5455L38.1814 12L40.0907 13.7728L40.4995 28.6364L38.5905 30.5455L24.136 29.7273L22.3633 27.6818L23.3178 14.3182L25.0905 12.5455ZM36.5451 15.6818L26.8633 16.0909L26.3178 26.1818L36.8178 26.7273L36.5451 15.6818Z" fill="#B9B8F6"/>
<path d="M45.2734 10.9091L48.955 10.7727V15.6818L57.955 11.4545L59.5915 14.7272L49.0917 19.7727L49.5004 31.5L45.8188 31.6363L45.2734 10.9091Z" fill="#B9B8F6"/>
<path d="M68.8642 9.68188L72.5458 10.091L72.2733 13.5001L81.0005 12.9546L81.2733 16.6364L71.8642 17.3182L70.9094 27.0001L78.6824 29.3182L77.7276 32.7273L68.4551 30.1364L67.0915 28.2273L68.046 17.591L60.4096 18.1364L60.1367 14.4546L68.4551 13.9092L68.8642 9.68188Z" fill="#B9B8F6"/>
<path d="M97.6357 6.54541L98.9993 9.81812L94.2266 11.8636L93.5446 23.1818L100.363 23.7272L100.09 27.4091L93.2721 26.7272L92.863 34.0909L89.1811 33.9545L89.5902 26.4545L82.9082 25.7727L83.3173 22.2272L89.863 22.7727L90.6813 10.6363L91.772 8.99995L97.6357 6.54541Z" fill="#B9B8F6"/>
<path fill-rule="evenodd" clip-rule="evenodd" d="M106.228 12.5455L119.318 12L121.364 13.7728L121.773 28.6364L119.727 30.5455L105.273 29.7273L103.637 27.8182L104.591 14.1818L106.228 12.5455ZM117.682 15.8182L108.137 16.0909L107.455 26.1818L117.955 26.7273L117.682 15.8182Z" fill="#B9B8F6"/>
<path d="M129.409 8.04541L132.954 8.45448L129.682 32.0454L126 31.6363L129.409 8.04541Z" fill="#B9B8F6"/>
<path d="M137.863 15.5454L141.409 15.9545L139.499 31.4999L135.954 31.0909L137.863 15.5454Z" fill="#B9B8F6"/>
<path d="M136.909 8.86371L140.318 7.90918L141.546 12.1364L138 13.091L136.909 8.86371Z" fill="#B9B8F6"/>
<path fill-rule="evenodd" clip-rule="evenodd" d="M146.182 13.3637L162.273 9.40918L164.591 11.0455L166.773 27.2728L169.5 28.091L168.546 31.5001L164.727 30.5455L164.046 29.7274L147.819 32.1819L145.637 30.0001L147.819 21.1364L149.591 19.6364H162L161.318 13.5001L147.137 16.9092L146.182 13.3637ZM162.546 23.3183H151.091L149.727 28.091L162.955 26.0455L162.546 23.3183Z" fill="#B9B8F6"/>
<path d="M173.863 16.3637L175.636 14.7273L187.227 12.9546L189.409 14.7273L190.091 30.1364L186.409 30.2728L185.863 16.9092L177.273 18.2728L175.636 29.7273L171.954 29.1819L173.863 16.3637Z" fill="#B9B8F6"/>
<path d="M6.27221 19.9092L7.09039 23.4546L17.454 21.2728L19.0904 19.2273L17.7267 9.40917L16.2267 7.77278L4.09039 5.18188L1.7722 7.09096L0.544922 30.2728L4.22675 30.4092L5.31764 9.27278L14.3176 11.1819L15.1358 18.0001L6.27221 19.9092Z" fill="#DDE9BB"/>
<path fill-rule="evenodd" clip-rule="evenodd" d="M25.6355 9.00005L38.7262 8.45459L40.6355 10.2273L41.0446 25.0909L39.1353 27.0001L24.6809 26.1819L22.9082 24.1364L23.8627 10.7728L25.6355 9.00005ZM37.0902 12.1364L27.4082 12.5455L26.8627 22.6364L37.3627 23.1819L37.0902 12.1364Z" fill="#DDE9BB"/>
<path d="M45.8184 7.36365L49.5003 7.22729V12.1364L58.5003 7.90912L60.1364 11.1818L49.6366 16.2273L50.0457 27.9545L46.3637 28.0909L45.8184 7.36365Z" fill="#DDE9BB"/>
<path d="M69.4088 6.13647L73.0907 6.54558L72.8179 9.95465L81.545 9.40923L81.8179 13.091L72.4088 13.7728L71.4543 23.4547L79.227 25.7728L78.2725 29.1819L68.9997 26.591L67.6361 24.6819L68.5906 14.0456L60.9541 14.591L60.6816 10.9092L68.9997 10.3638L69.4088 6.13647Z" fill="#DDE9BB"/>
<path d="M98.1822 3L99.5458 6.27271L94.7731 8.31818L94.0915 19.6364L100.909 20.1818L100.637 23.8636L93.8187 23.1818L93.4095 30.5455L89.7276 30.4091L90.1367 22.9091L83.4551 22.2273L83.8642 18.6818L90.4095 19.2273L91.2278 7.09089L92.3185 5.45454L98.1822 3Z" fill="#DDE9BB"/>
<path fill-rule="evenodd" clip-rule="evenodd" d="M106.773 9.00005L119.864 8.45459L121.909 10.2273L122.318 25.0909L120.273 27.0001L105.818 26.1819L104.182 24.2728L105.136 10.6364L106.773 9.00005ZM118.227 12.2728L108.682 12.5455L108 22.6364L118.5 23.1819L118.227 12.2728Z" fill="#DDE9BB"/>
<path d="M129.954 4.5L133.499 4.90911L130.227 28.5L126.545 28.0909L129.954 4.5Z" fill="#DDE9BB"/>
<path d="M138.409 12L141.955 12.4091L140.046 27.9545L136.5 27.5455L138.409 12Z" fill="#DDE9BB"/>
<path d="M137.455 5.31806L140.864 4.36353L142.092 8.59077L138.546 9.54535L137.455 5.31806Z" fill="#DDE9BB"/>
<path fill-rule="evenodd" clip-rule="evenodd" d="M146.727 9.81806L162.818 5.86353L165.136 7.49988L167.318 23.7272L170.045 24.5453L169.091 27.9544L165.273 26.9999L164.591 26.1817L148.363 28.6362L146.182 26.4544L148.363 17.5908L150.136 16.0908H162.545L161.864 9.95442L147.682 13.3635L146.727 9.81806ZM163.091 19.7726H151.636L150.273 24.5453L163.5 22.4999L163.091 19.7726Z" fill="#DDE9BB"/>
<path d="M174.409 12.8183L176.182 11.1819L187.773 9.40918L189.955 11.1819L190.637 26.591L186.955 26.7274L186.409 13.3637L177.818 14.7274L176.182 26.1819L172.5 25.6364L174.409 12.8183Z" fill="#DDE9BB"/>
<path d="M7.63546 16.9092L8.45364 20.4546L18.8173 18.2728L20.4536 16.2274L19.09 6.40917L17.59 4.77278L5.45364 2.18188L3.13547 4.09096L1.9082 27.2728L5.59004 27.4092L6.68093 6.27278L15.6809 8.18189L16.4991 15.0001L7.63546 16.9092Z" fill="#4F5256"/>
<path fill-rule="evenodd" clip-rule="evenodd" d="M27.0007 6.00005L40.0918 5.45459L42.0007 7.22734L42.4098 22.0909L40.5009 24.0001L26.0462 23.1819L24.2734 21.1364L25.228 7.77277L27.0007 6.00005ZM38.4554 9.13641L28.7734 9.54552L28.228 19.6364L38.7279 20.1819L38.4554 9.13641Z" fill="#4F5256"/>
<path d="M47.1816 4.36365L50.8636 4.22729V9.13637L59.8636 4.90912L61.5 8.18183L50.9999 13.2273L51.409 24.9545L47.727 25.0909L47.1816 4.36365Z" fill="#4F5256"/>
<path d="M70.7721 3.13647L74.454 3.54556L74.1812 6.95465L82.9083 6.40922L83.1812 10.091L73.7721 10.7728L72.8176 20.4546L80.5903 22.7728L79.6358 26.1819L70.363 23.591L68.9994 21.6819L69.9539 11.0456L62.3174 11.591L62.0449 7.90922L70.363 7.36375L70.7721 3.13647Z" fill="#4F5256"/>
<path d="M99.5455 0L100.909 3.27273L96.1364 5.31818L95.4548 16.6364L102.273 17.1818L102 20.8636L95.1819 20.1818L94.7728 27.5455L91.0912 27.4091L91.5003 19.9091L84.8184 19.2273L85.2275 15.6818L91.7728 16.2273L92.591 4.09089L93.6821 2.45455L99.5455 0Z" fill="#4F5256"/>
<path fill-rule="evenodd" clip-rule="evenodd" d="M108.136 6.00005L121.227 5.45459L123.272 7.22734L123.682 22.0909L121.636 24.0001L107.181 23.1819L105.545 21.2728L106.499 7.63641L108.136 6.00005ZM119.59 9.27277L110.045 9.54552L109.363 19.6364L119.863 20.1819L119.59 9.27277Z" fill="#4F5256"/>
<path d="M131.318 1.5L134.864 1.90909L131.591 25.5L127.909 25.0909L131.318 1.5Z" fill="#4F5256"/>
<path d="M139.772 9L143.318 9.40911L141.409 24.9545L137.863 24.5455L139.772 9Z" fill="#4F5256"/>
<path d="M138.818 2.31807L142.227 1.36353L143.455 5.59078L139.909 6.54535L138.818 2.31807Z" fill="#4F5256"/>
<path fill-rule="evenodd" clip-rule="evenodd" d="M148.091 6.81807L164.181 2.86353L166.499 4.49989L168.682 20.7272L171.409 21.5454L170.454 24.9544L166.636 23.9999L165.954 23.1817L149.727 25.6362L147.545 23.4544L149.727 14.5908L151.499 13.0908H163.909L163.227 6.95442L149.045 10.3635L148.091 6.81807ZM164.454 16.7726H153L151.636 21.5454L164.863 19.4999L164.454 16.7726Z" fill="#4F5256"/>
<path d="M175.772 9.81825L177.545 8.18189L189.136 6.40918L191.318 8.18189L192 23.591L188.318 23.7274L187.772 10.3637L179.181 11.7274L177.545 23.1819L173.863 22.6364L175.772 9.81825Z" fill="#4F5256"/>
</g>
<defs>
<clipPath id="clip0_1891_34945">
<rect width="192" height="34.3385" fill="white"/>
</clipPath>
</defs>
</svg>
