<svg width="15" height="17" viewBox="0 0 15 17" fill="none" xmlns="http://www.w3.org/2000/svg">
<path d="M7.25581 8.5C8.218 8.5 9.14077 8.07857 9.82113 7.32843C10.5015 6.57828 10.8837 5.56087 10.8837 4.5C10.8837 3.43913 10.5015 2.42172 9.82113 1.67157C9.14077 0.921427 8.218 0.5 7.25581 0.5C6.29363 0.5 5.37086 0.921427 4.6905 1.67157C4.01013 2.42172 3.62791 3.43913 3.62791 4.5C3.62791 5.56087 4.01013 6.57828 4.6905 7.32843C5.37086 8.07857 6.29363 8.5 7.25581 8.5ZM9.67442 4.5C9.67442 5.20724 9.4196 5.88552 8.96603 6.38562C8.51245 6.88572 7.89727 7.16667 7.25581 7.16667C6.61436 7.16667 5.99918 6.88572 5.5456 6.38562C5.09203 5.88552 4.83721 5.20724 4.83721 4.5C4.83721 3.79276 5.09203 3.11448 5.5456 2.61438C5.99918 2.11428 6.61436 1.83333 7.25581 1.83333C7.89727 1.83333 8.51245 2.11428 8.96603 2.61438C9.4196 3.11448 9.67442 3.79276 9.67442 4.5ZM14.5116 15.1667C14.5116 16.5 13.3023 16.5 13.3023 16.5H1.2093C1.2093 16.5 0 16.5 0 15.1667C0 13.8333 1.2093 9.83333 7.25581 9.83333C13.3023 9.83333 14.5116 13.8333 14.5116 15.1667ZM13.3023 15.1613C13.3011 14.8333 13.1161 13.8467 12.2962 12.9427C11.5077 12.0733 10.0239 11.1667 7.25581 11.1667C4.48651 11.1667 3.00391 12.0733 2.21544 12.9427C1.39553 13.8467 1.21172 14.8333 1.2093 15.1613H13.3023Z" fill="#343A40"/>
</svg>
