<svg width="48" height="48" viewBox="0 0 48 48" fill="none" xmlns="http://www.w3.org/2000/svg">
<g clip-path="url(#clip0_603_617)">
<path d="M48 24C48 10.7452 37.2548 0 24 0C10.7452 0 0 10.7452 0 24C0 37.2548 10.7452 48 24 48C37.2548 48 48 37.2548 48 24Z" fill="#6F6FFB"/>
<path d="M13.5 31.5C15.5711 31.5 17.25 29.8211 17.25 27.75C17.25 25.6789 15.5711 24 13.5 24C11.4289 24 9.75 25.6789 9.75 27.75C9.75 29.8211 11.4289 31.5 13.5 31.5Z" fill="#F0BD70"/>
<path d="M13.5 30.75H26.25V49.4025C26.25 49.4025 23.5177 51 19.875 51C16.2323 51 13.5 48.3923 13.5 48.3923V30.75Z" fill="#F0BD70"/>
<path d="M26.2497 40.401C26.2497 44.6415 25.5882 44.2395 21.287 44.2395C16.9857 44.2395 15.0012 40.8022 15.0012 36.5617C15.0012 32.3212 14.8377 28.5 18.3087 28.5C28.1247 28.875 26.2497 36.1605 26.2497 40.401Z" fill="#E9B05B"/>
<path d="M34.4158 27.075C34.4158 33.7665 37.1803 41.9948 25.1263 41.9948C13.0723 41.9948 13.0723 33.7665 13.0723 27.075C11.2513 19.125 11.6263 9.75 24.0013 9.75C36.3763 9.75 34.4158 20.3827 34.4158 27.075V27.075Z" fill="#FFCB7E"/>
<path d="M28.5 30.75H27.75C27.3358 30.75 27 31.0858 27 31.5C27 31.9142 27.3358 32.25 27.75 32.25H28.5C28.9142 32.25 29.25 31.9142 29.25 31.5C29.25 31.0858 28.9142 30.75 28.5 30.75Z" fill="#F0BD70"/>
<path d="M28.5 45H12C8.27208 45 5.25 48.0221 5.25 51.75V55.5C5.25 59.2279 8.27208 62.25 12 62.25H28.5C32.2279 62.25 35.25 59.2279 35.25 55.5V51.75C35.25 48.0221 32.2279 45 28.5 45Z" fill="#E05A33"/>
<path fill-rule="evenodd" clip-rule="evenodd" d="M34.4747 24.3615C35.0972 24.0101 35.5738 23.448 35.8185 22.7765C36.0633 22.1049 36.0602 21.3679 35.8097 20.6985C36.4943 20.3684 37.0282 19.7908 37.3034 19.0823C37.5786 18.3738 37.5746 17.5873 37.2922 16.8816C37.0098 16.1759 36.4702 15.6038 35.7822 15.2807C35.0942 14.9576 34.3093 14.9076 33.5859 15.141C34.6487 17.8965 34.5707 21.3045 34.4747 24.3615Z" fill="#47280B"/>
<path fill-rule="evenodd" clip-rule="evenodd" d="M27.2228 17.0695C26.5393 17.6704 25.66 18.0011 24.75 17.9995C23.92 18.0009 23.1133 17.7256 22.4573 17.2173C21.9704 17.704 21.3924 18.0898 20.7563 18.3527C20.1201 18.6156 19.4383 18.7505 18.75 18.7495C18.2303 18.7499 17.7134 18.6731 17.2163 18.5215C17.0208 18.7355 16.7954 18.9202 16.5473 19.0698C16.8425 19.4211 17.0532 19.8355 17.1632 20.281C17.2732 20.7266 17.2795 21.1914 17.1816 21.6397C17.0837 22.0881 16.8843 22.508 16.5987 22.8672C16.313 23.2264 15.9488 23.5152 15.534 23.7115C15.6578 23.8811 15.7317 24.082 15.7472 24.2913C15.7628 24.5007 15.7195 24.7103 15.6222 24.8963C15.5249 25.0823 15.3775 25.2374 15.1966 25.344C15.0157 25.4506 14.8086 25.5045 14.5988 25.4995C14.2311 26.1393 13.6406 26.6211 12.9401 26.8528C12.2396 27.0846 11.4782 27.0501 10.8016 26.7559C10.1249 26.4617 9.58038 25.9284 9.27211 25.2581C8.96384 24.5877 8.91342 23.8272 9.1305 23.122C8.85102 22.8438 8.62935 22.513 8.47823 22.1488C8.32712 21.7845 8.24955 21.3939 8.25 20.9995C8.25 20.17 8.58675 19.4193 9.1305 18.877C8.98564 18.4033 8.96038 17.901 9.05696 17.415C9.15355 16.9291 9.36897 16.4747 9.684 16.0923C9.29384 15.4048 9.06389 14.6381 9.01131 13.8493C8.95872 13.0606 9.08486 12.2702 9.3803 11.5369C9.67575 10.8037 10.1329 10.1467 10.7176 9.61473C11.3024 9.0828 11.9997 8.68972 12.7575 8.4648C12.7185 7.9258 12.8259 7.38628 13.0682 6.90325C13.3105 6.42021 13.6788 6.0116 14.1341 5.72058C14.5895 5.42956 15.115 5.26694 15.6551 5.2499C16.1953 5.23287 16.73 5.36205 17.2028 5.6238C17.6635 4.82559 18.3264 4.16281 19.1246 3.70213C19.9229 3.24146 20.8284 2.99914 21.75 2.99955C22.7798 2.99955 23.7405 3.2958 24.5513 3.8088C25.1082 3.20888 25.8071 2.7588 26.5837 2.50005C27.3603 2.2413 28.1895 2.1822 28.9949 2.32819C29.8004 2.47418 30.5561 2.82058 31.1925 3.33544C31.8288 3.85031 32.3253 4.51708 32.6363 5.2743C33.033 5.32573 33.4155 5.456 33.7612 5.65745C34.1068 5.8589 34.4087 6.12745 34.649 6.44731C34.8894 6.76717 35.0633 7.13187 35.1606 7.51995C35.2579 7.90803 35.2765 8.31164 35.2155 8.70705C36.6068 9.73755 37.5 11.3335 37.5 13.1245C37.5 16.231 34.8135 18.7495 31.5 18.7495C29.8253 18.7495 28.311 18.106 27.2228 17.0695V17.0695Z" fill="#47280B"/>
<path d="M21.6953 34.5C21.6953 34.3011 21.7743 34.1103 21.915 33.9697C22.0556 33.829 22.2464 33.75 22.4453 33.75H29.3026C29.5015 33.75 29.6922 33.829 29.8329 33.9697C29.9735 34.1103 30.0526 34.3011 30.0526 34.5C30.0526 35.4946 29.6575 36.4484 28.9542 37.1517C28.2509 37.8549 27.2971 38.25 26.3026 38.25H25.4453C24.4508 38.25 23.4969 37.8549 22.7937 37.1517C22.0904 36.4484 21.6953 35.4946 21.6953 34.5V34.5Z" fill="#66253C"/>
<path fill-rule="evenodd" clip-rule="evenodd" d="M27.5657 38.0322C27.1606 38.1767 26.7336 38.2502 26.3035 38.2497H25.4462C24.4776 38.2497 23.5466 37.8749 22.8481 37.2038C22.1497 36.5328 21.738 35.6175 21.6992 34.6497C22.2722 34.4352 23.1227 34.4599 23.962 34.4847C24.229 34.4922 24.4945 34.4997 24.7495 34.4997C26.407 34.4997 27.7495 35.6749 27.7495 37.1247C27.7495 37.4434 27.6842 37.7494 27.5657 38.0322V38.0322Z" fill="#B03E67"/>
<path d="M22.5 33.75H30V34.5C30 34.6989 29.921 34.8897 29.7803 35.0303C29.6397 35.171 29.4489 35.25 29.25 35.25H23.25C23.0511 35.25 22.8603 35.171 22.7197 35.0303C22.579 34.8897 22.5 34.6989 22.5 34.5V33.75Z" fill="white"/>
<path d="M24.75 28.125C24.75 27.5037 24.2463 27 23.625 27C23.0037 27 22.5 27.5037 22.5 28.125V28.875C22.5 29.4963 23.0037 30 23.625 30C24.2463 30 24.75 29.4963 24.75 28.875V28.125Z" fill="#1B0B47"/>
<path d="M32.25 28.125C32.25 27.5037 31.7463 27 31.125 27C30.5037 27 30 27.5037 30 28.125V28.875C30 29.4963 30.5037 30 31.125 30C31.7463 30 32.25 29.4963 32.25 28.875V28.125Z" fill="#1B0B47"/>
<path d="M20.625 29.25H19.125C18.5037 29.25 18 29.7537 18 30.375C18 30.9963 18.5037 31.5 19.125 31.5H20.625C21.2463 31.5 21.75 30.9963 21.75 30.375C21.75 29.7537 21.2463 29.25 20.625 29.25Z" fill="#FF859B"/>
<path d="M34.125 29.25H33.375C32.7537 29.25 32.25 29.7537 32.25 30.375C32.25 30.9963 32.7537 31.5 33.375 31.5H34.125C34.7463 31.5 35.25 30.9963 35.25 30.375C35.25 29.7537 34.7463 29.25 34.125 29.25Z" fill="#FF859B"/>
</g>
<defs>
<clipPath id="clip0_603_617">
<rect width="48" height="48" rx="24" fill="white"/>
</clipPath>
</defs>
</svg>
