<svg width="48" height="48" viewBox="0 0 48 48" fill="none" xmlns="http://www.w3.org/2000/svg">
<g clip-path="url(#clip0_603_768)">
<path d="M48 24C48 10.7452 37.2548 0 24 0C10.7452 0 0 10.7452 0 24C0 37.2548 10.7452 48 24 48C37.2548 48 48 37.2548 48 24Z" fill="#68DBF2"/>
<path d="M13.5 31.5C15.5711 31.5 17.25 29.8211 17.25 27.75C17.25 25.6789 15.5711 24 13.5 24C11.4289 24 9.75 25.6789 9.75 27.75C9.75 29.8211 11.4289 31.5 13.5 31.5Z" fill="#EAC0B3"/>
<path d="M13.5 30.75H26.25V49.4025C26.25 49.4025 23.5177 51 19.875 51C16.2323 51 13.5 48.3923 13.5 48.3923V30.75Z" fill="#EAC0B3"/>
<path d="M26.1079 39.834C26.1079 43.8727 25.4554 43.4902 21.2082 43.4902C16.9609 43.4902 15.0012 40.2165 15.0012 36.1777C15.0012 32.1397 14.8399 28.5 18.2674 28.5C27.9597 28.857 26.1079 35.7952 26.1079 39.834Z" fill="#C99688"/>
<path d="M34.4158 27.075C34.4158 33.7665 33.3763 41.9948 25.1263 41.9948C16.8763 41.9948 13.0723 33.7665 13.0723 27.075C11.2513 19.125 11.6263 9.75 24.0013 9.75C36.3763 9.75 34.4158 20.3827 34.4158 27.075V27.075Z" fill="#F5D0C5"/>
<path d="M28.5 30.75H27.75C27.3358 30.75 27 31.0858 27 31.5C27 31.9142 27.3358 32.25 27.75 32.25H28.5C28.9142 32.25 29.25 31.9142 29.25 31.5C29.25 31.0858 28.9142 30.75 28.5 30.75Z" fill="#EAC0B3"/>
<path d="M28.5 45H12C8.27208 45 5.25 48.0221 5.25 51.75V55.5C5.25 59.2279 8.27208 62.25 12 62.25H28.5C32.2279 62.25 35.25 59.2279 35.25 55.5V51.75C35.25 48.0221 32.2279 45 28.5 45Z" fill="#E05A33"/>
<path fill-rule="evenodd" clip-rule="evenodd" d="M21.7253 19.652C25.9328 21.0492 31.7671 22.9857 37.8766 16.8762C40.8766 13.8762 27.3766 1.12622 16.5016 8.25122C8.00184 9.51047 8.48709 14.6037 8.86209 18.5337C8.93409 19.286 9.00159 19.9947 9.00159 20.6262C9.00159 21.026 9.05409 21.3252 9.15159 21.5397C9.0506 22.3563 9.00051 23.1784 9.00159 24.0012C9.00159 24.7969 9.31766 25.5599 9.88027 26.1225C10.4429 26.6851 11.2059 27.0012 12.0016 27.0012C12.7972 27.0012 13.5603 26.6851 14.1229 26.1225C14.6855 25.5599 15.0016 24.7969 15.0016 24.0012C15.4596 24.0013 15.9116 23.8965 16.3228 23.6948C16.734 23.4932 17.0936 23.2 17.374 22.8379C17.6545 22.4757 17.8482 22.0542 17.9405 21.6056C18.0328 21.1569 18.0211 20.6931 17.9063 20.2497L18.0016 20.2512C18.9196 20.2512 19.7408 19.8387 20.2913 19.19C20.7443 19.3265 21.2236 19.4855 21.7253 19.652Z" fill="#1B0B47"/>
<path d="M22.7017 30.4035C24.47 30.4035 25.9035 28.97 25.9035 27.2018C25.9035 25.4335 24.47 24 22.7017 24C20.9335 24 19.5 25.4335 19.5 27.2018C19.5 28.97 20.9335 30.4035 22.7017 30.4035Z" stroke="black" stroke-width="2"/>
<path d="M33.2018 30.4035C34.97 30.4035 36.4035 28.97 36.4035 27.2018C36.4035 25.4335 34.97 24 33.2018 24C31.4335 24 30 25.4335 30 27.2018C30 28.97 31.4335 30.4035 33.2018 30.4035Z" stroke="black" stroke-width="2"/>
<path d="M25.4883 26.328L30.7383 26.25" stroke="black" stroke-width="2"/>
<path d="M21 34.5C21 33.9033 21.2371 33.331 21.659 32.909C22.081 32.4871 22.6533 32.25 23.25 32.25H30C30.5967 32.25 31.169 32.4871 31.591 32.909C32.0129 33.331 32.25 33.9033 32.25 34.5H21Z" fill="#1B0B47"/>
</g>
<defs>
<clipPath id="clip0_603_768">
<rect width="48" height="48" rx="24" fill="white"/>
</clipPath>
</defs>
</svg>
