<svg width="48" height="48" viewBox="0 0 48 48" fill="none" xmlns="http://www.w3.org/2000/svg">
<g clip-path="url(#clip0_603_685)">
<path d="M48 24C48 10.7452 37.2548 0 24 0C10.7452 0 0 10.7452 0 24C0 37.2548 10.7452 48 24 48C37.2548 48 48 37.2548 48 24Z" fill="#6F6FFB"/>
<path d="M13.5 31.5C15.5711 31.5 17.25 29.8211 17.25 27.75C17.25 25.6789 15.5711 24 13.5 24C11.4289 24 9.75 25.6789 9.75 27.75C9.75 29.8211 11.4289 31.5 13.5 31.5Z" fill="#68463C"/>
<path d="M13.5 30.75H26.25V49.4025C26.25 49.4025 23.5177 51 19.875 51C16.2323 51 13.5 48.3923 13.5 48.3923V30.75Z" fill="#68463C"/>
<path d="M26.2497 40.401C26.2497 44.6415 25.5882 44.2395 21.287 44.2395C16.9857 44.2395 15.0012 40.8022 15.0012 36.5617C15.0012 32.3212 14.8377 28.5 18.3087 28.5C28.1247 28.875 26.2497 36.1605 26.2497 40.401Z" fill="#553329"/>
<path d="M34.4158 27.075C34.4158 33.7665 37.1803 41.9948 25.1263 41.9948C13.0723 41.9948 13.0723 33.7665 13.0723 27.075C11.2513 19.125 11.6263 9.75 24.0013 9.75C36.3763 9.75 34.4158 20.3827 34.4158 27.075V27.075Z" fill="#836055"/>
<path d="M28.5 30.75H27.75C27.3358 30.75 27 31.0858 27 31.5C27 31.9142 27.3358 32.25 27.75 32.25H28.5C28.9142 32.25 29.25 31.9142 29.25 31.5C29.25 31.0858 28.9142 30.75 28.5 30.75Z" fill="#68463C"/>
<path d="M28.5 45H12C8.27208 45 5.25 48.0221 5.25 51.75V55.5C5.25 59.2279 8.27208 62.25 12 62.25H28.5C32.2279 62.25 35.25 59.2279 35.25 55.5V51.75C35.25 48.0221 32.2279 45 28.5 45Z" fill="#E05A33"/>
<path d="M15.5048 21.1656V25.6799C15.5048 26.2506 15.0001 27.0006 14.6251 27.3756C14.2501 27.7506 13.1251 28.5006 12.4876 28.5006C11.8516 28.5006 9.8333 28.1624 8.86805 26.8079C7.9028 25.4541 8.1983 18.3164 8.86805 16.6529C9.53705 14.9894 12.0053 11.4869 15.5056 8.81387C18.0406 6.87737 21.2543 5.27612 25.1588 4.80512C43.8638 2.54762 36.9136 15.7401 34.5001 19.1256C30.3751 17.6256 27.3751 17.2506 21.9623 17.9871C16.5496 18.7244 15.9503 19.4736 15.5048 21.1664V21.1656Z" fill="#1B0B47"/>
<path d="M21.6953 34.5C21.6953 34.3011 21.7743 34.1103 21.915 33.9697C22.0556 33.829 22.2464 33.75 22.4453 33.75H29.3026C29.5015 33.75 29.6922 33.829 29.8329 33.9697C29.9735 34.1103 30.0526 34.3011 30.0526 34.5C30.0526 35.4946 29.6575 36.4484 28.9542 37.1517C28.2509 37.8549 27.2971 38.25 26.3026 38.25H25.4453C24.4508 38.25 23.4969 37.8549 22.7937 37.1517C22.0904 36.4484 21.6953 35.4946 21.6953 34.5V34.5Z" fill="#66253C"/>
<path fill-rule="evenodd" clip-rule="evenodd" d="M27.5657 38.0322C27.1606 38.1767 26.7336 38.2502 26.3035 38.2497H25.4462C24.4776 38.2497 23.5466 37.8749 22.8481 37.2038C22.1497 36.5328 21.738 35.6175 21.6992 34.6497C22.2722 34.4352 23.1227 34.4599 23.962 34.4847C24.229 34.4922 24.4945 34.4997 24.7495 34.4997C26.407 34.4997 27.7495 35.6749 27.7495 37.1247C27.7495 37.4434 27.6842 37.7494 27.5657 38.0322V38.0322Z" fill="#B03E67"/>
<path d="M22.5 33.75H30V34.5C30 34.6989 29.921 34.8897 29.7803 35.0303C29.6397 35.171 29.4489 35.25 29.25 35.25H23.25C23.0511 35.25 22.8603 35.171 22.7197 35.0303C22.579 34.8897 22.5 34.6989 22.5 34.5V33.75Z" fill="white"/>
<path d="M24 33.975C24 33.9153 24.0237 33.8581 24.0659 33.8159C24.1081 33.7737 24.1653 33.75 24.225 33.75H25.275C25.3347 33.75 25.3919 33.7737 25.4341 33.8159C25.4763 33.8581 25.5 33.9153 25.5 33.975V35.775C25.5 35.8347 25.4763 35.8919 25.4341 35.9341C25.3919 35.9763 25.3347 36 25.275 36H24.225C24.1653 36 24.1081 35.9763 24.0659 35.9341C24.0237 35.8919 24 35.8347 24 35.775V33.975V33.975Z" fill="#B03E67"/>
<path d="M22.5 28.125C22.5 27.8266 22.6185 27.5405 22.8295 27.3295C23.0405 27.1185 23.3266 27 23.625 27C23.9234 27 24.2095 27.1185 24.4205 27.3295C24.6315 27.5405 24.75 27.8266 24.75 28.125V29.0453C24.75 29.1578 24.6585 29.25 24.5453 29.25H22.7048C22.6504 29.25 22.5984 29.2284 22.56 29.19C22.5216 29.1516 22.5 29.0996 22.5 29.0453V28.125V28.125ZM30 28.125C30 27.8266 30.1185 27.5405 30.3295 27.3295C30.5405 27.1185 30.8266 27 31.125 27C31.4234 27 31.7095 27.1185 31.9205 27.3295C32.1315 27.5405 32.25 27.8266 32.25 28.125V29.0453C32.25 29.1578 32.1585 29.25 32.0453 29.25H30.2047C30.1504 29.25 30.0984 29.2284 30.06 29.19C30.0216 29.1516 30 29.0996 30 29.0453V28.125V28.125Z" fill="#1B0B47"/>
<path d="M22.2017 20.4035C23.97 20.4035 25.4035 18.97 25.4035 17.2018C25.4035 15.4335 23.97 14 22.2017 14C20.4335 14 19 15.4335 19 17.2018C19 18.97 20.4335 20.4035 22.2017 20.4035Z" stroke="white" stroke-width="2"/>
<path d="M32.7018 20.4035C34.47 20.4035 35.9035 18.97 35.9035 17.2018C35.9035 15.4335 34.47 14 32.7018 14C30.9335 14 29.5 15.4335 29.5 17.2018C29.5 18.97 30.9335 20.4035 32.7018 20.4035Z" stroke="white" stroke-width="2"/>
<path d="M24.9883 16.328L30.2383 16.25" stroke="white" stroke-width="2"/>
<path d="M21 34.5C21 33.9033 21.2371 33.331 21.659 32.909C22.081 32.4871 22.6533 32.25 23.25 32.25H30C30.5967 32.25 31.169 32.4871 31.591 32.909C32.0129 33.331 32.25 33.9033 32.25 34.5H21Z" fill="#1B0B47"/>
</g>
<defs>
<clipPath id="clip0_603_685">
<rect width="48" height="48" rx="24" fill="white"/>
</clipPath>
</defs>
</svg>
