<svg width="48" height="48" viewBox="0 0 48 48" fill="none" xmlns="http://www.w3.org/2000/svg">
<g clip-path="url(#clip0_603_730)">
<path d="M48 24C48 10.7452 37.2548 0 24 0C10.7452 0 0 10.7452 0 24C0 37.2548 10.7452 48 24 48C37.2548 48 48 37.2548 48 24Z" fill="#E4ECF7"/>
<path d="M13.5 31.5C15.5711 31.5 17.25 29.8211 17.25 27.75C17.25 25.6789 15.5711 24 13.5 24C11.4289 24 9.75 25.6789 9.75 27.75C9.75 29.8211 11.4289 31.5 13.5 31.5Z" fill="#836055"/>
<path d="M13.5 30.75H26.25V49.4025C26.25 49.4025 23.5178 51 19.875 51C16.2323 51 13.5 48.3923 13.5 48.3923V30.75Z" fill="#836055"/>
<path d="M26.25 40.4013C26.25 44.6418 23.625 45.0003 21.2873 44.2398C18.9502 43.4808 14.25 36.8658 14.25 32.6253C14.25 28.3848 14.838 28.5003 18.3098 28.5003C28.125 28.8753 26.25 36.1608 26.25 40.4013Z" fill="#553329"/>
<path d="M34.4158 27.075C34.4158 33.7665 31.4998 41.25 26.6248 42.375C19.4998 41.625 13.0723 33.7665 13.0723 27.075C11.2513 19.125 11.6263 9.75 24.0013 9.75C36.3763 9.75 34.4158 20.3827 34.4158 27.075V27.075Z" fill="#836055"/>
<path d="M28.5 30.75H27.75C27.3358 30.75 27 31.0858 27 31.5C27 31.9142 27.3358 32.25 27.75 32.25H28.5C28.9142 32.25 29.25 31.9142 29.25 31.5C29.25 31.0858 28.9142 30.75 28.5 30.75Z" fill="#68463C"/>
<path d="M28.5 45H12C8.27208 45 5.25 48.0221 5.25 51.75V55.5C5.25 59.2279 8.27208 62.25 12 62.25H28.5C32.2279 62.25 35.25 59.2279 35.25 55.5V51.75C35.25 48.0221 32.2279 45 28.5 45Z" fill="#E05A33"/>
<path d="M0.000586689 7.49774C5.99834 1.50075 9.75134 9.74849 9.75134 9.74849L8.24984 15.7485C8.24984 15.7485 6.74984 17.6235 8.24984 23.2485C9.74984 28.8735 6.37484 31.8735 6.37484 31.8735C6.37484 31.8735 3.74984 33.7492 1.49984 32.2492C-0.750163 30.7492 -1.04791 29.3077 -0.750163 26.6242C-0.375163 23.2492 0.749837 24.3727 0.749837 20.9977C0.749837 17.6227 -5.99791 13.4947 -0.000163257 7.49774H0.000586689Z" fill="#1B0B47"/>
<path d="M9.77236 9.88672L13.9034 11.6732L11.2244 17.8682L7.09411 16.0832C7.09411 16.0832 6.37411 14.626 7.49911 12.3767C8.62186 10.1267 9.77311 9.88672 9.77311 9.88672H9.77236Z" fill="#FF6C98"/>
<path fill-rule="evenodd" clip-rule="evenodd" d="M13.5003 30.7501L12.508 24.1329C11.6318 24.3724 10.8723 24.9219 10.3706 25.6793C9.86895 26.4366 9.65927 27.3504 9.78053 28.2507C9.90178 29.151 10.3457 29.9766 11.0299 30.5743C11.714 31.1719 12.5919 31.5009 13.5003 31.5001V37.7251C12.3114 36.6704 11.2801 35.4504 10.438 34.1026C9.16304 32.0746 8.27204 29.7496 7.82654 27.2829C7.38129 24.8093 7.39146 22.2752 7.85654 19.8054C8.32154 17.3431 9.23129 15.0279 10.5235 13.0141C11.815 11.0011 13.4598 9.33686 15.346 8.13461C17.2315 6.93161 19.315 6.21836 21.4563 6.04286C21.9223 6.00472 22.39 5.99221 22.8573 6.00536C24.8522 5.95259 26.8381 6.29017 28.7035 6.99911C30.4323 7.65911 32.0035 8.62586 33.3265 9.84461C34.6334 11.0406 35.6843 12.489 36.4158 14.1024C36.9721 15.3359 37.3208 16.6529 37.4478 18.0001H37.5003V21.2146C37.5003 21.2146 37.2535 21.3286 36.7518 21.4891V27.8551C36.7518 27.8551 36.7518 28.9081 35.6268 29.6971C35.2368 29.9709 34.7133 30.1809 34.1943 30.3391C34.3414 29.2571 34.4158 28.1664 34.417 27.0744C34.417 26.2989 34.4433 25.4701 34.4703 24.6114C34.4973 23.7729 34.525 22.9051 34.5303 22.0306C33.1413 22.2849 31.255 22.5001 28.8468 22.5001C22.9608 22.5001 19.5003 21.2146 19.5003 21.2146V20.4654C18.9903 21.2634 18.4383 22.2279 18.0003 23.2501C17.4378 24.5626 17.4378 25.9081 17.4378 27.0384C17.4378 28.1694 17.4378 29.0859 16.8753 29.5396C15.7503 30.4471 13.5003 30.7501 13.5003 30.7501Z" fill="#1B0B47"/>
<path d="M24.75 28.125C24.75 27.5037 24.2463 27 23.625 27C23.0037 27 22.5 27.5037 22.5 28.125V28.875C22.5 29.4963 23.0037 30 23.625 30C24.2463 30 24.75 29.4963 24.75 28.875V28.125Z" fill="#1B0B47"/>
<path d="M32.25 28.125C32.25 27.5037 31.7463 27 31.125 27C30.5037 27 30 27.5037 30 28.125V28.875C30 29.4963 30.5037 30 31.125 30C31.7463 30 32.25 29.4963 32.25 28.875V28.125Z" fill="#1B0B47"/>
<path d="M20.625 29.25H19.125C18.5037 29.25 18 29.7537 18 30.375C18 30.9963 18.5037 31.5 19.125 31.5H20.625C21.2463 31.5 21.75 30.9963 21.75 30.375C21.75 29.7537 21.2463 29.25 20.625 29.25Z" fill="#FF859B"/>
<path d="M34.125 29.25H33.375C32.7537 29.25 32.25 29.7537 32.25 30.375C32.25 30.9963 32.7537 31.5 33.375 31.5H34.125C34.7463 31.5 35.25 30.9963 35.25 30.375C35.25 29.7537 34.7463 29.25 34.125 29.25Z" fill="#FF859B"/>
</g>
<defs>
<clipPath id="clip0_603_730">
<rect width="48" height="48" rx="24" fill="white"/>
</clipPath>
</defs>
</svg>
