<svg width="48" height="48" viewBox="0 0 48 48" fill="none" xmlns="http://www.w3.org/2000/svg">
<g clip-path="url(#clip0_603_639)">
<path d="M48 24C48 10.7452 37.2548 0 24 0C10.7452 0 0 10.7452 0 24C0 37.2548 10.7452 48 24 48C37.2548 48 48 37.2548 48 24Z" fill="#70E0BF"/>
<path d="M13.5 31.5C15.5711 31.5 17.25 29.8211 17.25 27.75C17.25 25.6789 15.5711 24 13.5 24C11.4289 24 9.75 25.6789 9.75 27.75C9.75 29.8211 11.4289 31.5 13.5 31.5Z" fill="#F0BD70"/>
<path d="M13.5 30.75H26.25V49.4025C26.25 49.4025 23.5177 51 19.875 51C16.2323 51 13.5 48.3923 13.5 48.3923V30.75Z" fill="#F0BD70"/>
<path d="M26.1079 39.834C26.1079 43.8727 25.4554 43.4902 21.2082 43.4902C16.9609 43.4902 15.0012 40.2165 15.0012 36.1777C15.0012 32.1397 14.8399 28.5 18.2674 28.5C27.9597 28.857 26.1079 35.7952 26.1079 39.834Z" fill="#E9B05B"/>
<path d="M34.4158 27.075C34.4158 33.7665 33.3763 41.9948 25.1263 41.9948C16.8763 41.9948 13.0723 33.7665 13.0723 27.075C11.2513 19.125 11.6263 9.75 24.0013 9.75C36.3763 9.75 34.4158 20.3827 34.4158 27.075V27.075Z" fill="#FFCB7E"/>
<path d="M28.5 30.75H27.75C27.3358 30.75 27 31.0858 27 31.5C27 31.9142 27.3358 32.25 27.75 32.25H28.5C28.9142 32.25 29.25 31.9142 29.25 31.5C29.25 31.0858 28.9142 30.75 28.5 30.75Z" fill="#F0BD70"/>
<path d="M28.5 45H12C8.27208 45 5.25 48.0221 5.25 51.75V55.5C5.25 59.2279 8.27208 62.25 12 62.25H28.5C32.2279 62.25 35.25 59.2279 35.25 55.5V51.75C35.25 48.0221 32.2279 45 28.5 45Z" fill="#FF4DD8"/>
<path d="M12.75 43.5H27V45.75C27 45.75 23.25 46.5 19.875 46.5C16.5 46.5 12.75 45.75 12.75 45.75V43.5Z" fill="#FF4DD8"/>
<path d="M12.75 43.5H27V45C27 45 24.75 46.125 19.875 46.125C15 46.125 12.75 45 12.75 45V43.5Z" fill="#D2499B"/>
<path d="M12.375 44.25C12.375 43.8522 12.533 43.4706 12.8143 43.1893C13.0956 42.908 13.4772 42.75 13.875 42.75H25.875C26.2728 42.75 26.6544 42.908 26.9357 43.1893C27.217 43.4706 27.375 43.8522 27.375 44.25C27.375 44.25 23.625 45 19.875 45C16.125 45 12.375 44.25 12.375 44.25Z" fill="#FF4DD8"/>
<path d="M16.4995 20.9987C16.0278 23.2487 17.2495 26.2344 17.2495 26.8059C17.2495 27.3774 14.3013 29.0747 13.4995 29.6237C12.6978 30.1727 12.3745 24.3737 12.3745 24.3737C10.1245 24.3737 9.74953 28.4987 9.74953 28.4987C9.74953 28.4987 8.06653 27.9437 7.49953 25.1237C7.11703 23.2187 7.72378 19.0569 7.87453 17.9987C8.24953 15.3737 8.62453 9.3737 13.4995 6.3737C18.3745 3.3737 30.7495 3.3737 33.7495 4.1237C41.17 5.97845 42.163 16.1132 39.7495 19.4987C35.9995 23.6237 25.4995 18.7487 22.1245 18.7487C18.7495 18.7487 16.972 18.7487 16.4995 20.9987Z" fill="#AD3A20"/>
<path d="M21.6953 34.5C21.6953 34.3011 21.7743 34.1103 21.915 33.9697C22.0556 33.829 22.2464 33.75 22.4453 33.75H29.3026C29.5015 33.75 29.6922 33.829 29.8329 33.9697C29.9735 34.1103 30.0526 34.3011 30.0526 34.5C30.0526 35.4946 29.6575 36.4484 28.9542 37.1517C28.2509 37.8549 27.2971 38.25 26.3026 38.25H25.4453C24.4508 38.25 23.4969 37.8549 22.7937 37.1517C22.0904 36.4484 21.6953 35.4946 21.6953 34.5V34.5Z" fill="#66253C"/>
<path fill-rule="evenodd" clip-rule="evenodd" d="M27.5657 38.0322C27.1606 38.1767 26.7336 38.2502 26.3035 38.2497H25.4462C24.4776 38.2497 23.5466 37.8749 22.8481 37.2038C22.1497 36.5328 21.738 35.6175 21.6992 34.6497C22.2722 34.4352 23.1227 34.4599 23.962 34.4847C24.229 34.4922 24.4945 34.4997 24.7495 34.4997C26.407 34.4997 27.7495 35.6749 27.7495 37.1247C27.7495 37.4434 27.6842 37.7494 27.5657 38.0322V38.0322Z" fill="#B03E67"/>
<path d="M22.5 33.75H30V34.5C30 34.6989 29.921 34.8897 29.7803 35.0303C29.6397 35.171 29.4489 35.25 29.25 35.25H23.25C23.0511 35.25 22.8603 35.171 22.7197 35.0303C22.579 34.8897 22.5 34.6989 22.5 34.5V33.75Z" fill="white"/>
<path d="M24 33.975C24 33.9153 24.0237 33.8581 24.0659 33.8159C24.1081 33.7737 24.1653 33.75 24.225 33.75H25.275C25.3347 33.75 25.3919 33.7737 25.4341 33.8159C25.4763 33.8581 25.5 33.9153 25.5 33.975V35.775C25.5 35.8347 25.4763 35.8919 25.4341 35.9341C25.3919 35.9763 25.3347 36 25.275 36H24.225C24.1653 36 24.1081 35.9763 24.0659 35.9341C24.0237 35.8919 24 35.8347 24 35.775V33.975V33.975Z" fill="#B03E67"/>
<path d="M32.25 28.125C32.25 28.4234 32.1315 28.7095 31.9205 28.9205C31.7095 29.1315 31.4234 29.25 31.125 29.25C30.8266 29.25 30.5405 29.1315 30.3295 28.9205C30.1185 28.7095 30 28.4234 30 28.125V27.2047C30 27.0922 30.0915 27 30.2047 27H32.0453C32.1578 27 32.25 27.0915 32.25 27.2047V28.125V28.125ZM24.75 28.125C24.75 28.4234 24.6315 28.7095 24.4205 28.9205C24.2095 29.1315 23.9234 29.25 23.625 29.25C23.3266 29.25 23.0405 29.1315 22.8295 28.9205C22.6185 28.7095 22.5 28.4234 22.5 28.125V27.2047C22.5 27.0922 22.5915 27 22.7048 27H24.5453C24.6578 27 24.75 27.0915 24.75 27.2047V28.125Z" fill="#1B0B47"/>
<path d="M29.625 27.375H32.625M22.125 27.375H25.125H22.125Z" stroke="#1B0B47" stroke-linecap="round"/>
<path d="M21 34.5C21 33.9033 21.2371 33.331 21.659 32.909C22.081 32.4871 22.6533 32.25 23.25 32.25H30C30.5967 32.25 31.169 32.4871 31.591 32.909C32.0129 33.331 32.25 33.9033 32.25 34.5H21Z" fill="#AD3A20"/>
</g>
<defs>
<clipPath id="clip0_603_639">
<rect width="48" height="48" rx="24" fill="white"/>
</clipPath>
</defs>
</svg>
