<svg width="48" height="48" viewBox="0 0 48 48" fill="none" xmlns="http://www.w3.org/2000/svg">
<g clip-path="url(#clip0_604_1171)">
<path d="M48 24C48 10.7452 37.2548 0 24 0C10.7452 0 0 10.7452 0 24C0 37.2548 10.7452 48 24 48C37.2548 48 48 37.2548 48 24Z" fill="#4C6FFF"/>
<path d="M13.5 31.5C15.5711 31.5 17.25 29.8211 17.25 27.75C17.25 25.6789 15.5711 24 13.5 24C11.4289 24 9.75 25.6789 9.75 27.75C9.75 29.8211 11.4289 31.5 13.5 31.5Z" fill="#68463C"/>
<path d="M13.5 30.75H26.25V49.4025C26.25 49.4025 23.5177 51 19.875 51C16.2323 51 13.5 48.3923 13.5 48.3923V30.75Z" fill="#68463C"/>
<path d="M26.1079 39.834C26.1079 43.8727 25.4554 43.4902 21.2082 43.4902C16.9609 43.4902 15.0012 40.2165 15.0012 36.1777C15.0012 32.1397 14.8399 28.5 18.2674 28.5C27.9597 28.857 26.1079 35.7952 26.1079 39.834Z" fill="#553329"/>
<path d="M34.4158 27.075C34.4158 33.7665 33.3763 41.9948 25.1263 41.9948C16.8763 41.9948 13.0723 33.7665 13.0723 27.075C11.2513 19.125 11.6263 9.75 24.0013 9.75C36.3763 9.75 34.4158 20.3827 34.4158 27.075V27.075Z" fill="#836055"/>
<path d="M28.5 30.75H27.75C27.3358 30.75 27 31.0858 27 31.5C27 31.9142 27.3358 32.25 27.75 32.25H28.5C28.9142 32.25 29.25 31.9142 29.25 31.5C29.25 31.0858 28.9142 30.75 28.5 30.75Z" fill="#68463C"/>
<path d="M28.5 45H12C8.27208 45 5.25 48.0221 5.25 51.75V55.5C5.25 59.2279 8.27208 62.25 12 62.25H28.5C32.2279 62.25 35.25 59.2279 35.25 55.5V51.75C35.25 48.0221 32.2279 45 28.5 45Z" fill="#FF4DD8"/>
<path fill-rule="evenodd" clip-rule="evenodd" d="M21.0885 20.5965C26.9355 21.453 37.1985 22.956 38.25 13.4985C39 6.74848 28.875 -1.12652 18 5.99848C11.1675 7.01098 9.45825 12.207 9.069 16.689C8.54221 17.2452 8.24904 17.9824 8.25 18.7485C8.25 19.146 8.32725 19.5262 8.4675 19.8735C8.32725 20.2207 8.25 20.601 8.25 20.9985C8.25 21.828 8.58675 22.5787 9.1305 23.121C9.00469 23.5335 8.96929 23.9683 9.02673 24.3957C9.08416 24.8231 9.23307 25.2331 9.46332 25.5978C9.69356 25.9625 9.99972 26.2732 10.3609 26.5088C10.7221 26.7445 11.1299 26.8994 11.5564 26.9632C11.983 27.027 12.4182 26.998 12.8325 26.8783C13.2469 26.7587 13.6305 26.5511 13.9574 26.2697C14.2842 25.9883 14.5465 25.6398 14.7264 25.2478C14.9064 24.8559 14.9997 24.4297 15 23.9985C15.4578 23.9985 15.9095 23.8938 16.3205 23.6924C16.7316 23.491 17.0911 23.1982 17.3715 22.8364C17.6519 22.4746 17.8458 22.0534 17.9384 21.6051C18.031 21.1568 18.0197 20.6933 17.9055 20.25C17.937 20.2485 17.9685 20.2485 18 20.2485C18.714 20.2485 19.7925 20.406 21.0885 20.5965V20.5965Z" fill="#1B0B47"/>
<path d="M21.6953 34.5C21.6953 34.3011 21.7743 34.1103 21.915 33.9697C22.0556 33.829 22.2464 33.75 22.4453 33.75H29.3026C29.5015 33.75 29.6922 33.829 29.8329 33.9697C29.9735 34.1103 30.0526 34.3011 30.0526 34.5C30.0526 35.4946 29.6575 36.4484 28.9542 37.1517C28.2509 37.8549 27.2971 38.25 26.3026 38.25H25.4453C24.4508 38.25 23.4969 37.8549 22.7937 37.1517C22.0904 36.4484 21.6953 35.4946 21.6953 34.5V34.5Z" fill="#66253C"/>
<path fill-rule="evenodd" clip-rule="evenodd" d="M27.5657 38.0322C27.1606 38.1767 26.7336 38.2502 26.3035 38.2497H25.4462C24.4776 38.2497 23.5466 37.8749 22.8481 37.2038C22.1497 36.5328 21.738 35.6175 21.6992 34.6497C22.2722 34.4352 23.1227 34.4599 23.962 34.4847C24.229 34.4922 24.4945 34.4997 24.7495 34.4997C26.407 34.4997 27.7495 35.6749 27.7495 37.1247C27.7495 37.4434 27.6842 37.7494 27.5657 38.0322V38.0322Z" fill="#B03E67"/>
<path d="M22.5 33.75H30V34.5C30 34.6989 29.921 34.8897 29.7803 35.0303C29.6397 35.171 29.4489 35.25 29.25 35.25H23.25C23.0511 35.25 22.8603 35.171 22.7197 35.0303C22.579 34.8897 22.5 34.6989 22.5 34.5V33.75Z" fill="white"/>
<path d="M24.75 28.125C24.75 27.5037 24.2463 27 23.625 27C23.0037 27 22.5 27.5037 22.5 28.125V28.875C22.5 29.4963 23.0037 30 23.625 30C24.2463 30 24.75 29.4963 24.75 28.875V28.125Z" fill="#1B0B47"/>
<path d="M32.25 28.125C32.25 27.5037 31.7463 27 31.125 27C30.5037 27 30 27.5037 30 28.125V28.875C30 29.4963 30.5037 30 31.125 30C31.7463 30 32.25 29.4963 32.25 28.875V28.125Z" fill="#1B0B47"/>
<path d="M23.2017 31.4035C24.97 31.4035 26.4035 29.97 26.4035 28.2018C26.4035 26.4335 24.97 25 23.2017 25C21.4335 25 20 26.4335 20 28.2018C20 29.97 21.4335 31.4035 23.2017 31.4035Z" stroke="#1D1D1D" stroke-width="2"/>
<path d="M33.7018 31.4035C35.47 31.4035 36.9035 29.97 36.9035 28.2018C36.9035 26.4335 35.47 25 33.7018 25C31.9335 25 30.5 26.4335 30.5 28.2018C30.5 29.97 31.9335 31.4035 33.7018 31.4035Z" stroke="#1D1D1D" stroke-width="2"/>
<path d="M25.9883 27.328L31.2383 27.25" stroke="#1D1D1D" stroke-width="2"/>
</g>
<defs>
<clipPath id="clip0_604_1171">
<rect width="48" height="48" rx="24" fill="white"/>
</clipPath>
</defs>
</svg>
