<svg width="48" height="48" viewBox="0 0 48 48" fill="none" xmlns="http://www.w3.org/2000/svg">
<g clip-path="url(#clip0_604_1221)">
<path d="M48 24C48 10.7452 37.2548 0 24 0C10.7452 0 0 10.7452 0 24C0 37.2548 10.7452 48 24 48C37.2548 48 48 37.2548 48 24Z" fill="#FFBAF8"/>
<path d="M13.5 31.5C15.5711 31.5 17.25 29.8211 17.25 27.75C17.25 25.6789 15.5711 24 13.5 24C11.4289 24 9.75 25.6789 9.75 27.75C9.75 29.8211 11.4289 31.5 13.5 31.5Z" fill="#EAC0B3"/>
<path d="M13.5 30.75H26.25V49.4025C26.25 49.4025 23.5177 51 19.875 51C16.2323 51 13.5 48.3923 13.5 48.3923V30.75Z" fill="#EAC0B3"/>
<path d="M26.2497 40.401C26.2497 44.6415 25.5882 44.2395 21.287 44.2395C16.9857 44.2395 15.0012 40.8022 15.0012 36.5617C15.0012 32.3212 14.8377 28.5 18.3087 28.5C28.1247 28.875 26.2497 36.1605 26.2497 40.401Z" fill="#C99688"/>
<path d="M34.4158 27.075C34.4158 33.7665 37.1803 41.9948 25.1263 41.9948C13.0723 41.9948 13.0723 33.7665 13.0723 27.075C11.2513 19.125 11.6263 9.75 24.0013 9.75C36.3763 9.75 34.4158 20.3827 34.4158 27.075V27.075Z" fill="#F5D0C5"/>
<path d="M28.5 30.75H27.75C27.3358 30.75 27 31.0858 27 31.5C27 31.9142 27.3358 32.25 27.75 32.25H28.5C28.9142 32.25 29.25 31.9142 29.25 31.5C29.25 31.0858 28.9142 30.75 28.5 30.75Z" fill="#EAC0B3"/>
<path d="M28.5 45H12C8.27208 45 5.25 48.0221 5.25 51.75V55.5C5.25 59.2279 8.27208 62.25 12 62.25H28.5C32.2279 62.25 35.25 59.2279 35.25 55.5V51.75C35.25 48.0221 32.2279 45 28.5 45Z" fill="#E05A33"/>
<path fill-rule="evenodd" clip-rule="evenodd" d="M18.0015 18.7501C18.0015 19.1476 17.9243 19.5279 17.784 19.8751C17.9683 20.3306 18.0378 20.8244 17.9866 21.3131C17.9353 21.8018 17.7648 22.2704 17.49 22.6778C17.2152 23.0851 16.8446 23.4187 16.4107 23.6493C15.9768 23.8799 15.4929 24.0003 15.0015 24.0001C15.0015 24.7958 14.6854 25.5588 14.1228 26.1214C13.5602 26.684 12.7972 27.0001 12.0015 27.0001C11.2059 27.0001 10.4428 26.684 9.8802 26.1214C9.31759 25.5588 9.00152 24.7958 9.00152 24.0001C9.00152 23.2156 9.05027 21.9136 9.27752 20.7594C9.03415 20.2336 8.94823 19.6486 9.03013 19.0751C9.11203 18.5015 9.35825 17.964 9.73904 17.5274C10.1198 17.0907 10.6189 16.7737 11.176 16.6146C11.7331 16.4554 12.3243 16.461 12.8783 16.6306C13.2976 16.2105 13.8322 15.9242 14.4143 15.808C14.9964 15.6918 15.5999 15.7509 16.1484 15.9779C16.6969 16.2048 17.1657 16.5893 17.4956 17.0828C17.8255 17.5763 18.0015 18.1565 18.0015 18.7501ZM34.3883 25.4199C34.8088 25.3199 35.2028 25.1303 35.5433 24.864C35.8838 24.5977 36.1627 24.261 36.3611 23.8769C36.5594 23.4929 36.6724 23.0705 36.6924 22.6387C36.7125 22.2069 36.639 21.7759 36.477 21.3751C36.6476 20.9535 36.7201 20.4987 36.6891 20.045C36.658 19.5913 36.5242 19.1506 36.2978 18.7562C36.0714 18.3618 35.7582 18.024 35.3821 17.7684C35.0059 17.5128 34.5766 17.3461 34.1265 17.2809C34.5713 19.6359 34.488 22.2391 34.413 24.6114L34.3883 25.4199Z" fill="#1B0B47"/>
<path d="M21.6953 34.5C21.6953 34.3011 21.7743 34.1103 21.915 33.9697C22.0556 33.829 22.2464 33.75 22.4453 33.75H29.3026C29.5015 33.75 29.6922 33.829 29.8329 33.9697C29.9735 34.1103 30.0526 34.3011 30.0526 34.5C30.0526 35.4946 29.6575 36.4484 28.9542 37.1517C28.2509 37.8549 27.2971 38.25 26.3026 38.25H25.4453C24.4508 38.25 23.4969 37.8549 22.7937 37.1517C22.0904 36.4484 21.6953 35.4946 21.6953 34.5V34.5Z" fill="#66253C"/>
<path fill-rule="evenodd" clip-rule="evenodd" d="M27.5657 38.0322C27.1606 38.1767 26.7336 38.2502 26.3035 38.2497H25.4462C24.4776 38.2497 23.5466 37.8749 22.8481 37.2038C22.1497 36.5328 21.738 35.6175 21.6992 34.6497C22.2722 34.4352 23.1227 34.4599 23.962 34.4847C24.229 34.4922 24.4945 34.4997 24.7495 34.4997C26.407 34.4997 27.7495 35.6749 27.7495 37.1247C27.7495 37.4434 27.6842 37.7494 27.5657 38.0322V38.0322Z" fill="#B03E67"/>
<path d="M22.5 33.75H30V34.5C30 34.6989 29.921 34.8897 29.7803 35.0303C29.6397 35.171 29.4489 35.25 29.25 35.25H23.25C23.0511 35.25 22.8603 35.171 22.7197 35.0303C22.579 34.8897 22.5 34.6989 22.5 34.5V33.75Z" fill="white"/>
<path d="M24 33.975C24 33.9153 24.0237 33.8581 24.0659 33.8159C24.1081 33.7737 24.1653 33.75 24.225 33.75H25.275C25.3347 33.75 25.3919 33.7737 25.4341 33.8159C25.4763 33.8581 25.5 33.9153 25.5 33.975V35.775C25.5 35.8347 25.4763 35.8919 25.4341 35.9341C25.3919 35.9763 25.3347 36 25.275 36H24.225C24.1653 36 24.1081 35.9763 24.0659 35.9341C24.0237 35.8919 24 35.8347 24 35.775V33.975V33.975Z" fill="#B03E67"/>
<path d="M24.75 28.125C24.75 27.5037 24.2463 27 23.625 27C23.0037 27 22.5 27.5037 22.5 28.125V28.875C22.5 29.4963 23.0037 30 23.625 30C24.2463 30 24.75 29.4963 24.75 28.875V28.125Z" fill="#1B0B47"/>
<path d="M32.25 28.125C32.25 27.5037 31.7463 27 31.125 27C30.5037 27 30 27.5037 30 28.125V28.875C30 29.4963 30.5037 30 31.125 30C31.7463 30 32.25 29.4963 32.25 28.875V28.125Z" fill="#1B0B47"/>
<path fill-rule="evenodd" clip-rule="evenodd" d="M28.125 32.25C23.25 33.375 19.875 33.75 19.875 33.75C19.875 33.75 20.625 35.625 22.5 35.25C24 34.95 27 34.2503 28.125 33.75V32.25ZM28.5 32.25C33 33 36 33.567 36 33.567C36 33.567 35.1608 35.2043 33.375 34.875L33.135 34.8308C31.692 34.566 29.5125 34.1648 28.5 33.75V32.25Z" fill="#1B0B47"/>
<path fill-rule="evenodd" clip-rule="evenodd" d="M27.9725 18.8195C27.3124 19.3988 26.4472 19.75 25.5 19.75C24.6364 19.75 23.841 19.4581 23.2071 18.9675C22.2574 19.9145 20.9471 20.5 19.5 20.5C18.9663 20.5 18.4512 20.4204 17.9659 20.2723C17.7712 20.4856 17.5461 20.6707 17.2974 20.8207C17.7359 21.3422 18 22.0153 18 22.75C18 23.9474 17.2985 24.981 16.284 25.4621C16.4198 25.648 16.5 25.8771 16.5 26.125C16.5 26.7463 15.9963 27.25 15.375 27.25L15.3625 27.2499L15.3488 27.2497C14.8302 28.1466 13.8605 28.75 12.75 28.75C11.0931 28.75 9.75 27.4069 9.75 25.75C9.75 25.4448 9.79556 25.1503 9.88025 24.8729C9.33644 24.3299 9 23.5792 9 22.75C9 21.9208 9.33644 21.1701 9.88025 20.6271C9.79556 20.3497 9.75 20.0552 9.75 19.75C9.75 19.0257 10.0067 18.3614 10.434 17.843C9.99866 17.0781 9.75 16.1931 9.75 15.25C9.75 12.869 11.3351 10.8581 13.5076 10.2152C13.5026 10.1441 13.5 10.0723 13.5 10C13.5 8.34315 14.8431 7 16.5 7C17.027 7 17.5222 7.13588 17.9526 7.37452C18.8605 5.80556 20.557 4.75 22.5 4.75C23.53 4.75 24.4907 5.04661 25.3014 5.55909C26.1917 4.60008 27.4633 4 28.875 4C30.9124 4 32.6579 5.24986 33.3866 7.02468C34.8608 7.21434 36 8.47414 36 10C36 10.1557 35.9881 10.3086 35.9653 10.4578C37.3569 11.488 38.25 13.0837 38.25 14.875C38.25 17.9816 35.5637 20.5 32.25 20.5C30.5753 20.5 29.0609 19.8568 27.9725 18.8195Z" fill="#1B0B47"/>
</g>
<defs>
<clipPath id="clip0_604_1221">
<rect width="48" height="48" rx="24" fill="white"/>
</clipPath>
</defs>
</svg>
